<svg xmlns="http://www.w3.org/2000/svg" viewBox="0 0 585.21 75.12"><g id="Layer_2" data-name="Layer 2"><g id="Layer_1-2" data-name="Layer 1"><polygon points="24.62 0.1 24.68 0.1 24.66 0.06 54.83 0 30.26 37.59 30.26 37.6 55.1 74.98 55.09 74.99 24.84 75.12 0.04 37.68 0.01 37.66 0 37.64 24.62 0.1" fill="#cf3092"/><path d="M110.17,37.6l0,0v0l0,0L92.89,63.74A25.25,25.25,0,0,1,71.72,75.06L55.1,75h0l17.34-26.1a25.27,25.27,0,0,1,21-11.28Z" fill="#cf3092"/><circle cx="70.27" cy="18.99" r="12.38" fill="#f9b617"/><path d="M158.54,46l-.08.09a11.84,11.84,0,0,1-8.71,3.3c-7.78,0-11.27-5.83-11.27-11.6,0-6.81,4.81-11.76,11.44-11.76a12.13,12.13,0,0,1,8,3.15l.09.08,6.35-6.68.09-.09-.09-.09a19.18,19.18,0,0,0-14.58-6c-6.07,0-11.29,1.84-15.11,5.32-4.14,3.77-6.34,9.33-6.34,16.05s2.2,12.28,6.34,16.06c3.82,3.47,9,5.31,15.11,5.31a20.75,20.75,0,0,0,15.56-6.38l.09-.09-6.77-6.6Z"/><path d="M189.14,16.77A20.41,20.41,0,0,0,173.88,23a21.44,21.44,0,0,0-5.62,14.85c0,12.39,8.62,21,21,21s21.05-8.65,21.05-21C210.27,25.62,201.38,16.77,189.14,16.77Zm10.87,21c0,5.63-3.38,11.68-10.79,11.68s-10.78-6.05-10.78-11.68c0-8.08,5.59-11.76,10.78-11.76C196,26.05,200,32,200,37.81Z"/><path d="M235.86,16.77A20.4,20.4,0,0,0,220.6,23,21.39,21.39,0,0,0,215,37.81c0,12.39,8.62,21,21,21s21-8.65,21-21C257,25.62,248.1,16.77,235.86,16.77Zm10.86,21c0,5.63-3.38,11.68-10.78,11.68s-10.78-6.05-10.78-11.68c0-8.08,5.59-11.76,10.78-11.76C242.69,26.05,246.72,32,246.72,37.81Z"/><path d="M286.64,16.69c-4.1,0-9.61,1.64-12.94,6.22l-.62-5.33h-9.52V74.73h10.18V53.52c2.85,4,8.65,5.42,13.22,5.42,12.2,0,20.4-8.49,20.4-21.13C307.36,25.57,298.64,16.69,286.64,16.69Zm10.54,21.12a11.27,11.27,0,1,1-22.54,0c0-6.63,4.63-11.27,11.27-11.27S297.18,31.18,297.18,37.81Z"/><path d="M331,33.05c-5-.32-7.37-1.71-7.37-4.27s2.62-3.87,7.2-3.87c4.21,0,7.24,1.1,9.84,3.55l.1.09,5.62-6.61.08-.09-.09-.08c-4.31-3.78-8.86-5.33-15.71-5.33a22.74,22.74,0,0,0-11.28,2.81,11,11,0,0,0-5.78,9.85c0,9.85,10.48,12.11,16.72,12.58,5.73.33,7.86,1.44,7.86,4.11a3.71,3.71,0,0,1-1.2,2.68,8.37,8.37,0,0,1-5.7,2h-.21c-4.3-.08-10.84-2.34-13.75-5.58l-.11-.12-5,7.21-.06.09.07.07c6.08,6.33,12.56,7.2,18.65,7.2,5.41,0,9.91-1.37,13-4A12,12,0,0,0,348.29,46C348.29,35.51,339.05,33.57,331,33.05Z"/><path d="M374,16.36c-12.82,0-21.45,8.49-21.45,21.13,0,6.41,2,11.81,5.88,15.61S368,59,374.78,59s13.45-2.51,17.34-6.55l.09-.09-6.53-6.44-.09.09c-2.32,2.4-7.22,3.7-10.65,3.7-6.56,0-11.08-3.17-11.82-8.29h31.31v-.12c.77-8.13-.9-14.71-4.82-19C386.07,18.42,380.68,16.36,374,16.36ZM363.3,33c1.43-4.81,5.45-7.57,11.07-7.57,5.87,0,9.61,2.76,10.28,7.57Z"/><path d="M423.2,16.53c-4,0-8.11.67-11.24,5.47l-.7-4.42h-9.43V58H412V36.67c0-6.29,3.7-10,9.89-10A9.82,9.82,0,0,1,429,29.2l.12.1,4.59-8.85-.06-.06C431.28,18,427.19,16.53,423.2,16.53Z"/><polygon points="464.75 31.01 458.76 47.46 452.69 30.84 447.16 17.58 447.13 17.5 436.03 17.5 453.28 58.05 453.31 58.12 464.22 58.12 481.34 17.68 481.42 17.5 470.32 17.5 464.75 31.01"/><rect x="485.9" y="17.42" width="10.18" height="40.54"/><path d="M491,.47a5.71,5.71,0,0,0-6,5.92,5.72,5.72,0,0,0,1.88,4.45A6.2,6.2,0,0,0,491,12.32a5.7,5.7,0,0,0,6-5.93A5.7,5.7,0,0,0,491,.47Z"/><path d="M532.58,46l-.09.09a11.82,11.82,0,0,1-8.7,3.3c-7.79,0-11.27-5.83-11.27-11.6,0-6.81,4.81-11.76,11.43-11.76a12.16,12.16,0,0,1,8,3.15l.09.08,6.35-6.68.08-.09-.09-.09a19.16,19.16,0,0,0-14.57-6c-6.07,0-11.3,1.84-15.11,5.32-4.15,3.77-6.34,9.33-6.34,16.05s2.19,12.28,6.34,16.06c3.81,3.47,9,5.31,15.11,5.31a20.71,20.71,0,0,0,15.55-6.38l.09-.09-6.76-6.6Z"/><path d="M580.21,22.31c-3.55-3.89-8.93-5.95-15.57-5.95-12.83,0-21.45,8.49-21.45,21.13,0,6.41,2,11.81,5.88,15.61S558.62,59,565.37,59s13.46-2.51,17.35-6.55l.08-.09-6.52-6.44-.09.09c-2.32,2.4-7.22,3.7-10.65,3.7-6.56,0-11.08-3.17-11.82-8.29H585v-.12C585.79,33.19,584.13,26.61,580.21,22.31ZM553.9,33c1.42-4.81,5.45-7.57,11.07-7.57,5.87,0,9.61,2.76,10.27,7.57Z"/></g></g></svg>